<mxfile host="65bd71144e">
    <diagram id="T73iE4SEcnvjvv75G5gT" name="Page-1">
        <mxGraphModel dx="776" dy="638" grid="1" gridSize="10" guides="1" tooltips="1" connect="1" arrows="1" fold="1" page="1" pageScale="1" pageWidth="850" pageHeight="1100" math="0" shadow="0">
            <root>
                <mxCell id="0"/>
                <mxCell id="1" parent="0"/>
                <mxCell id="12" value="Raspberry controlled" style="edgeStyle=none;html=1;entryX=0;entryY=0.5;entryDx=0;entryDy=0;" parent="1" source="176" target="35" edge="1">
                    <mxGeometry relative="1" as="geometry">
                        <mxPoint x="340" y="160" as="targetPoint"/>
                        <mxPoint x="270" y="160" as="sourcePoint"/>
                    </mxGeometry>
                </mxCell>
                <mxCell id="35" value="Check positions list" style="whiteSpace=wrap;html=1;verticalAlign=top;rounded=1;arcSize=10;dashed=0;" parent="1" vertex="1">
                    <mxGeometry x="550" y="110" width="120" height="60" as="geometry"/>
                </mxCell>
                <mxCell id="53" value="Get data" style="whiteSpace=wrap;html=1;verticalAlign=top;rounded=1;arcSize=10;dashed=0;" parent="1" vertex="1">
                    <mxGeometry x="700" y="670" width="120" height="60" as="geometry"/>
                </mxCell>
                <mxCell id="80" value="" style="edgeStyle=none;html=1;entryX=0;entryY=0.5;entryDx=0;entryDy=0;exitX=1;exitY=0.5;exitDx=0;exitDy=0;startArrow=none;" parent="1" source="87" target="53" edge="1">
                    <mxGeometry relative="1" as="geometry">
                        <mxPoint x="360" y="700" as="targetPoint"/>
                        <mxPoint x="160" y="670" as="sourcePoint"/>
                    </mxGeometry>
                </mxCell>
                <mxCell id="83" value="Init" style="whiteSpace=wrap;html=1;verticalAlign=top;rounded=1;arcSize=10;dashed=0;" parent="1" vertex="1">
                    <mxGeometry x="30" y="670" width="120" height="60" as="geometry"/>
                </mxCell>
                <mxCell id="84" value="" style="edgeStyle=none;html=1;entryX=0.568;entryY=0.006;entryDx=0;entryDy=0;entryPerimeter=0;" parent="1" target="83" edge="1">
                    <mxGeometry relative="1" as="geometry">
                        <mxPoint x="130" y="570" as="targetPoint"/>
                        <mxPoint x="70" y="580" as="sourcePoint"/>
                    </mxGeometry>
                </mxCell>
                <mxCell id="177" style="edgeStyle=none;html=1;" parent="1" source="85" target="176" edge="1">
                    <mxGeometry relative="1" as="geometry"/>
                </mxCell>
                <mxCell id="85" value="Init" style="whiteSpace=wrap;html=1;verticalAlign=top;rounded=1;arcSize=10;dashed=0;" parent="1" vertex="1">
                    <mxGeometry x="30" y="150" width="120" height="60" as="geometry"/>
                </mxCell>
                <mxCell id="86" value="" style="edgeStyle=none;html=1;exitX=1;exitY=0.5;exitDx=0;exitDy=0;" parent="1" target="85" edge="1">
                    <mxGeometry relative="1" as="geometry">
                        <mxPoint x="89.99999999999997" y="130.0000000000001" as="targetPoint"/>
                        <mxPoint x="21.840000000000003" y="69.64" as="sourcePoint"/>
                    </mxGeometry>
                </mxCell>
                <mxCell id="87" value="Raspberry connect" style="text;html=1;resizable=0;autosize=1;align=center;verticalAlign=middle;points=[];fillColor=none;strokeColor=none;rounded=0;" parent="1" vertex="1">
                    <mxGeometry x="390" y="690" width="120" height="20" as="geometry"/>
                </mxCell>
                <mxCell id="88" value="" style="edgeStyle=none;html=1;entryX=0;entryY=0.5;entryDx=0;entryDy=0;exitX=1;exitY=0.5;exitDx=0;exitDy=0;endArrow=none;" parent="1" source="83" target="87" edge="1">
                    <mxGeometry relative="1" as="geometry">
                        <mxPoint x="250" y="660" as="targetPoint"/>
                        <mxPoint x="160" y="670" as="sourcePoint"/>
                    </mxGeometry>
                </mxCell>
                <mxCell id="92" value="" style="edgeStyle=none;html=1;exitX=0;exitY=0.75;exitDx=0;exitDy=0;" parent="1" source="35" target="85" edge="1">
                    <mxGeometry relative="1" as="geometry">
                        <mxPoint x="170" y="190.36000000000013" as="targetPoint"/>
                        <mxPoint x="101.84000000000003" y="130" as="sourcePoint"/>
                    </mxGeometry>
                </mxCell>
                <mxCell id="95" value="!Raspberry controlled" style="edgeLabel;html=1;align=center;verticalAlign=middle;resizable=0;points=[];" parent="92" vertex="1" connectable="0">
                    <mxGeometry x="0.1262" y="4" relative="1" as="geometry">
                        <mxPoint as="offset"/>
                    </mxGeometry>
                </mxCell>
                <mxCell id="98" value="!Raspberry connect" style="edgeStyle=none;html=1;entryX=1;entryY=0.75;entryDx=0;entryDy=0;" parent="1" source="163" target="83" edge="1">
                    <mxGeometry relative="1" as="geometry">
                        <mxPoint x="200" y="740" as="targetPoint"/>
                        <mxPoint x="310" y="920" as="sourcePoint"/>
                    </mxGeometry>
                </mxCell>
                <mxCell id="106" value="Computer controlled state machine" style="text;html=1;resizable=0;autosize=1;align=center;verticalAlign=middle;points=[];fillColor=none;strokeColor=none;rounded=0;" parent="1" vertex="1">
                    <mxGeometry x="520" y="50" width="200" height="20" as="geometry"/>
                </mxCell>
                <mxCell id="107" value="Computer connection state machine" style="text;html=1;resizable=0;autosize=1;align=center;verticalAlign=middle;points=[];fillColor=none;strokeColor=none;rounded=0;" parent="1" vertex="1">
                    <mxGeometry x="110" y="610" width="210" height="20" as="geometry"/>
                </mxCell>
                <mxCell id="124" value="use a PID controller to set the pwm" style="whiteSpace=wrap;html=1;verticalAlign=top;rounded=1;arcSize=10;dashed=0;" parent="1" vertex="1">
                    <mxGeometry x="1290" y="400.36" width="120" height="60" as="geometry"/>
                </mxCell>
                <mxCell id="125" value="" style="edgeStyle=none;html=1;startArrow=none;" parent="1" source="139" target="129" edge="1">
                    <mxGeometry relative="1" as="geometry">
                        <mxPoint x="1530" y="470.36000000000035" as="targetPoint"/>
                        <mxPoint x="1280" y="460.36" as="sourcePoint"/>
                    </mxGeometry>
                </mxCell>
                <mxCell id="126" value="Stop" style="text;html=1;resizable=0;autosize=1;align=center;verticalAlign=middle;points=[];fillColor=none;strokeColor=none;rounded=0;" parent="1" vertex="1">
                    <mxGeometry x="1440" y="500" width="40" height="20" as="geometry"/>
                </mxCell>
                <mxCell id="127" value="" style="edgeStyle=none;html=1;exitX=1;exitY=0.5;exitDx=0;exitDy=0;endArrow=none;" parent="1" source="124" target="126" edge="1">
                    <mxGeometry relative="1" as="geometry">
                        <mxPoint x="1430" y="470.36" as="targetPoint"/>
                        <mxPoint x="1240" y="470.36" as="sourcePoint"/>
                    </mxGeometry>
                </mxCell>
                <mxCell id="129" value="Init" style="whiteSpace=wrap;html=1;verticalAlign=top;rounded=1;arcSize=10;dashed=0;" parent="1" vertex="1">
                    <mxGeometry x="970" y="540" width="120" height="60" as="geometry"/>
                </mxCell>
                <mxCell id="130" value="" style="edgeStyle=none;html=1;entryX=0.5;entryY=0;entryDx=0;entryDy=0;" parent="1" target="129" edge="1">
                    <mxGeometry relative="1" as="geometry">
                        <mxPoint x="1009.0799999999999" y="440.36" as="targetPoint"/>
                        <mxPoint x="971" y="480" as="sourcePoint"/>
                    </mxGeometry>
                </mxCell>
                <mxCell id="131" value="" style="edgeStyle=none;html=1;startArrow=none;" parent="1" source="132" target="136" edge="1">
                    <mxGeometry relative="1" as="geometry">
                        <mxPoint x="1170" y="470.7199999999999" as="targetPoint"/>
                        <mxPoint x="1141.8400000000001" y="380.36" as="sourcePoint"/>
                    </mxGeometry>
                </mxCell>
                <mxCell id="132" value="IsMotion" style="text;html=1;resizable=0;autosize=1;align=center;verticalAlign=middle;points=[];fillColor=none;strokeColor=none;rounded=0;" parent="1" vertex="1">
                    <mxGeometry x="1020" y="440.36" width="60" height="20" as="geometry"/>
                </mxCell>
                <mxCell id="133" value="" style="edgeStyle=none;html=1;endArrow=none;" parent="1" source="129" target="132" edge="1">
                    <mxGeometry relative="1" as="geometry">
                        <mxPoint x="1080" y="490" as="targetPoint"/>
                        <mxPoint x="1050" y="470.36" as="sourcePoint"/>
                    </mxGeometry>
                </mxCell>
                <mxCell id="134" value="Motor controller" style="text;html=1;resizable=0;autosize=1;align=center;verticalAlign=middle;points=[];fillColor=none;strokeColor=none;rounded=0;" parent="1" vertex="1">
                    <mxGeometry x="1030" y="350" width="100" height="20" as="geometry"/>
                </mxCell>
                <mxCell id="135" value="" style="edgeStyle=none;html=1;" parent="1" source="136" target="124" edge="1">
                    <mxGeometry relative="1" as="geometry">
                        <mxPoint x="1210" y="710" as="sourcePoint"/>
                    </mxGeometry>
                </mxCell>
                <mxCell id="136" value="calculate speed" style="whiteSpace=wrap;html=1;verticalAlign=top;rounded=1;arcSize=10;dashed=0;" parent="1" vertex="1">
                    <mxGeometry x="1130" y="410" width="120" height="60" as="geometry"/>
                </mxCell>
                <mxCell id="138" value="" style="edgeStyle=none;html=1;startArrow=none;" parent="1" source="165" target="161" edge="1">
                    <mxGeometry relative="1" as="geometry">
                        <mxPoint x="770" y="800" as="sourcePoint"/>
                        <mxPoint x="760" y="820" as="targetPoint"/>
                    </mxGeometry>
                </mxCell>
                <mxCell id="139" value="!IsMotion" style="text;html=1;resizable=0;autosize=1;align=center;verticalAlign=middle;points=[];fillColor=none;strokeColor=none;rounded=0;" parent="1" vertex="1">
                    <mxGeometry x="1275" y="570" width="60" height="20" as="geometry"/>
                </mxCell>
                <mxCell id="140" value="" style="edgeStyle=none;html=1;startArrow=none;endArrow=none;" parent="1" source="126" target="139" edge="1">
                    <mxGeometry relative="1" as="geometry">
                        <mxPoint x="1090" y="553.6854545454546" as="targetPoint"/>
                        <mxPoint x="1450" y="455.79818181818166" as="sourcePoint"/>
                    </mxGeometry>
                </mxCell>
                <mxCell id="181" style="edgeStyle=none;html=1;" parent="1" source="144" target="180" edge="1">
                    <mxGeometry relative="1" as="geometry"/>
                </mxCell>
                <mxCell id="144" value="velocity factor = &lt;br&gt;1-1/2*n" style="whiteSpace=wrap;html=1;verticalAlign=top;rounded=1;arcSize=10;dashed=0;" parent="1" vertex="1">
                    <mxGeometry x="450" y="400.36" width="120" height="60" as="geometry"/>
                </mxCell>
                <mxCell id="146" value="" style="edgeStyle=none;html=1;startArrow=none;" parent="1" source="154" target="35" edge="1">
                    <mxGeometry relative="1" as="geometry">
                        <mxPoint x="470" y="350" as="sourcePoint"/>
                        <mxPoint x="410" y="280" as="targetPoint"/>
                    </mxGeometry>
                </mxCell>
                <mxCell id="151" value="" style="edgeStyle=none;html=1;" parent="1" source="144" target="85" edge="1">
                    <mxGeometry relative="1" as="geometry">
                        <mxPoint x="404.96000000000004" y="340" as="targetPoint"/>
                        <mxPoint x="385.3846153846155" y="390" as="sourcePoint"/>
                    </mxGeometry>
                </mxCell>
                <mxCell id="152" value="!Raspberry controlled" style="edgeLabel;html=1;align=center;verticalAlign=middle;resizable=0;points=[];" parent="151" vertex="1" connectable="0">
                    <mxGeometry x="0.1262" y="4" relative="1" as="geometry">
                        <mxPoint as="offset"/>
                    </mxGeometry>
                </mxCell>
                <mxCell id="154" value="position list size &amp;lt; 3" style="text;html=1;resizable=0;autosize=1;align=center;verticalAlign=middle;points=[];fillColor=none;strokeColor=none;rounded=0;" parent="1" vertex="1">
                    <mxGeometry x="410" y="245" width="130" height="30" as="geometry"/>
                </mxCell>
                <mxCell id="155" value="" style="edgeStyle=none;html=1;endArrow=none;" parent="1" source="144" target="154" edge="1">
                    <mxGeometry relative="1" as="geometry">
                        <mxPoint x="500.7011985121917" y="400.3600000000001" as="sourcePoint"/>
                        <mxPoint x="429.2988014878083" y="170" as="targetPoint"/>
                    </mxGeometry>
                </mxCell>
                <mxCell id="156" value="" style="edgeStyle=none;html=1;startArrow=none;" parent="1" source="159" edge="1">
                    <mxGeometry relative="1" as="geometry">
                        <mxPoint x="669.9985714285713" y="190" as="sourcePoint"/>
                        <mxPoint x="740" y="370" as="targetPoint"/>
                    </mxGeometry>
                </mxCell>
                <mxCell id="159" value="position list size &amp;gt; 3" style="text;html=1;resizable=0;autosize=1;align=center;verticalAlign=middle;points=[];fillColor=none;strokeColor=none;rounded=0;" parent="1" vertex="1">
                    <mxGeometry x="575" y="245" width="130" height="30" as="geometry"/>
                </mxCell>
                <mxCell id="160" value="" style="edgeStyle=none;html=1;startArrow=none;endArrow=none;" parent="1" source="35" target="159" edge="1">
                    <mxGeometry relative="1" as="geometry">
                        <mxPoint x="480" y="164.44444444444446" as="sourcePoint"/>
                        <mxPoint x="640.909090909091" y="230" as="targetPoint"/>
                    </mxGeometry>
                </mxCell>
                <mxCell id="161" value="Invalid data&lt;br&gt;retries++" style="whiteSpace=wrap;html=1;verticalAlign=top;rounded=1;arcSize=10;dashed=0;" parent="1" vertex="1">
                    <mxGeometry x="400" y="960" width="120" height="60" as="geometry"/>
                </mxCell>
                <mxCell id="162" value="valid data&lt;br&gt;retries=0" style="whiteSpace=wrap;html=1;verticalAlign=top;rounded=1;arcSize=10;dashed=0;" parent="1" vertex="1">
                    <mxGeometry x="430" y="810" width="120" height="60" as="geometry"/>
                </mxCell>
                <mxCell id="163" value="send debug data of wheels speed" style="whiteSpace=wrap;html=1;verticalAlign=top;rounded=1;arcSize=10;dashed=0;" parent="1" vertex="1">
                    <mxGeometry x="220" y="770" width="120" height="60" as="geometry"/>
                </mxCell>
                <mxCell id="164" value="" style="edgeStyle=none;html=1;startArrow=none;" parent="1" source="167" target="162" edge="1">
                    <mxGeometry relative="1" as="geometry">
                        <mxPoint x="790" y="800" as="sourcePoint"/>
                        <mxPoint x="610" y="890" as="targetPoint"/>
                    </mxGeometry>
                </mxCell>
                <mxCell id="165" value="invalid data" style="text;html=1;resizable=0;autosize=1;align=center;verticalAlign=middle;points=[];fillColor=none;strokeColor=none;rounded=0;" parent="1" vertex="1">
                    <mxGeometry x="660" y="850" width="80" height="20" as="geometry"/>
                </mxCell>
                <mxCell id="166" value="" style="edgeStyle=none;html=1;endArrow=none;" parent="1" source="53" target="165" edge="1">
                    <mxGeometry relative="1" as="geometry">
                        <mxPoint x="700" y="730" as="sourcePoint"/>
                        <mxPoint x="520" y="820" as="targetPoint"/>
                    </mxGeometry>
                </mxCell>
                <mxCell id="167" value="valid data" style="text;html=1;resizable=0;autosize=1;align=center;verticalAlign=middle;points=[];fillColor=none;strokeColor=none;rounded=0;" parent="1" vertex="1">
                    <mxGeometry x="585" y="770" width="70" height="20" as="geometry"/>
                </mxCell>
                <mxCell id="168" value="" style="edgeStyle=none;html=1;endArrow=none;" parent="1" source="53" target="167" edge="1">
                    <mxGeometry relative="1" as="geometry">
                        <mxPoint x="725.3846153846152" y="730" as="sourcePoint"/>
                        <mxPoint x="494.6153846153845" y="930" as="targetPoint"/>
                    </mxGeometry>
                </mxCell>
                <mxCell id="169" value="" style="edgeStyle=none;html=1;startArrow=none;" parent="1" source="163" target="53" edge="1">
                    <mxGeometry relative="1" as="geometry">
                        <mxPoint x="450" y="770" as="targetPoint"/>
                        <mxPoint x="260" y="770" as="sourcePoint"/>
                    </mxGeometry>
                </mxCell>
                <mxCell id="170" value="" style="edgeStyle=none;html=1;startArrow=none;" parent="1" source="162" target="163" edge="1">
                    <mxGeometry relative="1" as="geometry">
                        <mxPoint x="290.38615384615383" y="870" as="sourcePoint"/>
                        <mxPoint x="190.0015384615386" y="960" as="targetPoint"/>
                    </mxGeometry>
                </mxCell>
                <mxCell id="171" value="" style="edgeStyle=none;html=1;startArrow=none;" parent="1" source="172" target="174" edge="1">
                    <mxGeometry relative="1" as="geometry">
                        <mxPoint x="412.5" y="890" as="sourcePoint"/>
                        <mxPoint x="280" y="970" as="targetPoint"/>
                    </mxGeometry>
                </mxCell>
                <mxCell id="172" value="retries == 5" style="text;html=1;resizable=0;autosize=1;align=center;verticalAlign=middle;points=[];fillColor=none;strokeColor=none;rounded=0;" parent="1" vertex="1">
                    <mxGeometry x="300" y="970" width="80" height="20" as="geometry"/>
                </mxCell>
                <mxCell id="173" value="" style="edgeStyle=none;html=1;startArrow=none;endArrow=none;" parent="1" source="161" target="172" edge="1">
                    <mxGeometry relative="1" as="geometry">
                        <mxPoint x="431.57894736842104" y="960" as="sourcePoint"/>
                        <mxPoint x="308.42105263157896" y="830" as="targetPoint"/>
                    </mxGeometry>
                </mxCell>
                <mxCell id="174" value="Disconnect&lt;br&gt;&lt;span style=&quot;font-size: 11px; background-color: rgb(24, 20, 29);&quot;&gt;Raspberry connect = 0&lt;/span&gt;" style="whiteSpace=wrap;html=1;verticalAlign=top;rounded=1;arcSize=10;dashed=0;" parent="1" vertex="1">
                    <mxGeometry x="140" y="940" width="120" height="60" as="geometry"/>
                </mxCell>
                <mxCell id="175" value="" style="edgeStyle=none;html=1;startArrow=none;" parent="1" source="174" target="83" edge="1">
                    <mxGeometry relative="1" as="geometry">
                        <mxPoint x="220" y="877.1414285714285" as="sourcePoint"/>
                        <mxPoint x="130" y="859.9985714285714" as="targetPoint"/>
                    </mxGeometry>
                </mxCell>
                <mxCell id="176" value="Estimate pose" style="whiteSpace=wrap;html=1;verticalAlign=top;rounded=1;arcSize=10;dashed=0;" parent="1" vertex="1">
                    <mxGeometry x="230" y="50" width="120" height="60" as="geometry"/>
                </mxCell>
                <mxCell id="178" value="velocity factor = 1" style="whiteSpace=wrap;html=1;verticalAlign=top;rounded=1;arcSize=10;dashed=0;" parent="1" vertex="1">
                    <mxGeometry x="680" y="380.36" width="120" height="60" as="geometry"/>
                </mxCell>
                <mxCell id="183" style="edgeStyle=none;html=1;" parent="1" source="180" target="182" edge="1">
                    <mxGeometry relative="1" as="geometry"/>
                </mxCell>
                <mxCell id="185" style="edgeStyle=none;html=1;" parent="1" source="180" target="184" edge="1">
                    <mxGeometry relative="1" as="geometry"/>
                </mxCell>
                <mxCell id="180" value="Motion controller" style="whiteSpace=wrap;html=1;verticalAlign=top;rounded=1;arcSize=10;dashed=0;" parent="1" vertex="1">
                    <mxGeometry x="220" y="410" width="120" height="60" as="geometry"/>
                </mxCell>
                <mxCell id="186" style="edgeStyle=none;html=1;" parent="1" source="182" target="184" edge="1">
                    <mxGeometry relative="1" as="geometry"/>
                </mxCell>
                <mxCell id="182" value="almost stop&lt;br&gt;velocity factor =&lt;br&gt;0.25" style="whiteSpace=wrap;html=1;verticalAlign=top;rounded=1;arcSize=10;dashed=0;" parent="1" vertex="1">
                    <mxGeometry x="190" y="500" width="120" height="60" as="geometry"/>
                </mxCell>
                <mxCell id="184" value="Feed motor controllers" style="whiteSpace=wrap;html=1;verticalAlign=top;rounded=1;arcSize=10;dashed=0;" parent="1" vertex="1">
                    <mxGeometry x="80" y="330" width="120" height="60" as="geometry"/>
                </mxCell>
                <mxCell id="187" value="" style="edgeStyle=none;html=1;" parent="1" source="184" target="176" edge="1">
                    <mxGeometry relative="1" as="geometry">
                        <mxPoint x="94.95999999999981" y="211.1400000000001" as="targetPoint"/>
                        <mxPoint x="560" y="165.0000000000001" as="sourcePoint"/>
                    </mxGeometry>
                </mxCell>
                <mxCell id="188" value="!Raspberry controlled" style="edgeLabel;html=1;align=center;verticalAlign=middle;resizable=0;points=[];" parent="187" vertex="1" connectable="0">
                    <mxGeometry x="0.1262" y="4" relative="1" as="geometry">
                        <mxPoint as="offset"/>
                    </mxGeometry>
                </mxCell>
            </root>
        </mxGraphModel>
    </diagram>
</mxfile>